<svg width="640" height="512" viewBox="0 0 640 512" fill="none" xmlns="http://www.w3.org/2000/svg">
<path d="M346.5 213.3H362.66C374.5 213.3 384 203.8 384 192C384 180.21 374.459 170.67 362.67 170.67H346.51C308.5 170.67 289.46 124.71 316.34 97.83L327.78 86.39C336.112 78.058 336.111 64.56 327.779 56.22C319.445 47.886 305.949 47.888 297.609 56.222L286.2 67.66C259.3 94.54 213.3 75.51 213.3 37.49V21.33C213.3 9.542 203.8 0 192 0C180.2 0 170.7 9.542 170.7 21.33V37.49C170.7 75.5 124.74 94.54 97.86 67.66L86.4 56.23C78.066 47.896 64.57 47.894 56.23 56.228C47.898 64.562 47.897 78.068 56.229 86.398L67.66 97.83C94.54 124.71 75.502 170.67 37.49 170.67H21.33C9.541 170.7 0 180.2 0 192C0 203.79 9.541 213.33 21.33 213.33H37.49C75.5 213.33 94.54 259.29 67.66 286.17L56.23 297.6C47.898 305.934 47.902 319.44 56.234 327.77C60.402 331.938 65.855 334.018 71.314 334.018C76.773 334.018 82.234 331.936 86.394 327.768L97.83 316.3C124.71 289.42 170.67 308.458 170.67 346.47V362.63C170.7 374.5 180.2 384 192 384C203.8 384 213.33 374.457 213.33 362.67V346.51C213.33 308.5 259.29 289.46 286.17 316.34L297.6 327.77C301.768 331.938 307.225 334.02 312.68 334.02C318.135 334.02 323.59 331.94 327.76 327.772C336.092 319.44 336.093 305.942 327.761 297.602L316.3 286.2C289.5 259.3 308.5 213.3 346.5 213.3V213.3ZM160 192C142.3 192 128 177.7 128 160C128 142.33 142.33 128 160 128C177.67 128 192 142.33 192 160C192 177.7 177.7 192 160 192ZM240 224C231.2 224 224 216.8 224 208C224 199.2 231.2 192 240 192C248.8 192 256 199.2 256 208C256 216.8 248.8 224 240 224ZM624 352H611.88C583.37 352 569.09 317.53 589.25 297.37L597.826 288.794C604.076 282.544 604.076 272.424 597.826 266.174C591.576 259.924 581.446 259.921 575.206 266.171L566.63 274.747C546.5 294.9 512 280.6 512 252.1V240C512 231.2 504.8 224 496 224C487.2 224 480 231.2 480 240V252.12C480 280.63 445.53 294.91 425.37 274.75L416.794 266.174C410.544 259.924 400.424 259.921 394.174 266.171C387.924 272.421 387.921 282.551 394.171 288.801L402.747 297.377C422.9 317.5 408.6 352 380.1 352H368C359.156 352 352 359.156 352 368C352 376.844 359.156 384 368 384H380.12C408.63 384 422.91 418.47 402.75 438.63L394.174 447.206C387.924 453.456 387.921 463.576 394.171 469.826C397.296 472.951 401.393 474.517 405.491 474.517C409.589 474.517 413.679 472.955 416.801 469.829L425.377 461.253C445.5 441.1 480 455.4 480 483.9V496C480 504.844 487.156 512 496 512C504.844 512 512 504.844 512 496V483.88C512 455.37 546.47 441.09 566.63 461.25L575.206 469.826C578.331 472.951 582.425 474.514 586.516 474.514C590.607 474.514 594.7 472.955 597.826 469.83C604.076 463.58 604.079 453.45 597.829 447.2L589.253 438.624C569.1 418.5 583.4 384 611.9 384H624C632.844 384 640 376.844 640 368C640 359.156 632.8 352 624 352ZM480 384C462.33 384 448 369.67 448 352C448 334.33 462.33 320 480 320C497.67 320 512 334.33 512 352C512 369.7 497.7 384 480 384Z" fill="black"/>
</svg>
